<svg xmlns:xlink="http://www.w3.org/1999/xlink" xmlns="http://www.w3.org/2000/svg" version="1.1" viewBox="0 0 268 269" height="269px" width="268px">
    
    <title>购物</title>
    <desc>Created with Sketch.</desc>
    <defs>
        <ellipse ry="134.236754" rx="134" cy="134.236754" cx="134" id="path-1"></ellipse>
        <path id="path-3" d="M9.66525148,15.5758394 C8.95544082,14.9893698 6.61623259,12.6578799 2.64762678,8.58136972 C1.13885556,7.03154139 1.03915181,4.59424572 2.41631287,2.92637705 C3.72543614,1.34090841 6.07196652,1.11688622 7.65743516,2.42600948 C7.67580082,2.44117403 7.69402054,2.45651447 7.71209179,2.47202868 L19.3615096,12.4730825 L19.3615096,12.4730825 C13.7527363,15.2483465 10.5206503,16.2825988 9.66525148,15.5758394 Z"></path>
        <path id="path-5" d="M9.42163818,17.4532459 C7.2658479,14.5485698 5.11005761,11.6438936 2.95426732,8.73921746 C1.53336902,6.82472259 1.93350809,4.12085219 3.84800296,2.69995389 C4.00733017,2.58170454 4.17462029,2.47458035 4.3486834,2.37934327 C6.55983578,1.169531 9.33307558,1.98127755 10.5428878,4.19242993 C10.6031907,4.30264433 10.6589167,4.4153018 10.7099236,4.53011445 L16.4511772,17.4532459 L16.4511772,17.4532459 C11.7648179,17.4532459 9.42163818,17.4532459 9.42163818,17.4532459 Z"></path>
        <path id="path-7" d="M0,14.7104089 L1.09117981,3.40527331 C1.2621285,1.63416452 2.70343496,0.254824047 4.48034243,0.161820703 C6.06215713,0.0790285167 7.41158763,1.29422636 7.49437982,2.87604106 C7.49819742,2.94897957 7.49922743,3.02203729 7.49746759,3.09505444 L7.16444547,16.9124116 L7.16444547,16.9124116 L0,14.7104089 Z"></path>
        <path id="path-9" d="M11.1934026,14.8127999 C8.18171742,11.3072434 5.17003228,7.80168684 2.15834714,4.29613034 C1.39959308,3.41295195 1.50045893,2.0819027 2.38363732,1.32314864 C2.61756633,1.12217612 2.89273938,0.974973875 3.18975003,0.891923257 C5.16437948,0.339774057 7.28364079,0.880053415 8.75291298,2.31018258 L17.7858945,11.1025155 L17.7858945,11.1025155 C13.3908999,13.5760384 11.1934026,14.8127999 11.1934026,14.8127999 Z"></path>
        <path id="path-11" d="M16.4793217,6.7733182 C14.6312439,6.01070144 10.9071088,4.12366454 5.30691642,1.1122075 C4.08802355,0.456771431 2.58166554,0.694440321 1.62379469,1.69332955 C0.877964215,2.47109831 0.903855312,3.70621952 1.68162407,4.45204999 C1.76772814,4.53461828 1.86122327,4.60911583 1.9609348,4.67460664 L14.1435666,12.6761938 L14.1435666,12.6761938 C17.766734,9.5934855 18.545319,7.62586031 16.4793217,6.7733182 Z"></path>
        <path id="path-13" d="M0,13.3724047 C7.68329017,8.01211376 14.5344889,4.83680014 20.5535962,3.8464638 C26.5727036,2.85612746 33.9320935,1.57397286 42.6317659,-6.94631609e-15 L66.6018185,41.8547578 C59.6713435,45.8195318 54.7094836,48.4091404 51.7162389,49.6235836 C39.4812493,54.5876617 31.9151431,55.6440851 30.5959364,55.2262078 C28.7926211,54.6549823 18.5939756,40.7037146 0,13.3724047 Z"></path>
        <path id="path-15" d="M0,87.9477038 L146.901104,1.13694775 C147.266264,0.921157585 147.737217,1.04224574 147.953007,1.40740571 C148.073445,1.61121062 148.093163,1.85916955 148.006448,2.07944724 L115.662036,84.2424629 L115.662036,84.2424629 L17.9859003,137.547307 L0,87.9477038 Z"></path>
    </defs>
    <g fill-rule="evenodd" fill="none" stroke-width="1" stroke="none" id="页面-2">
        <g id="购物">
            <mask fill="white" id="mask-2">
                <use xlink:href="#path-1"></use>
            </mask>
            <use xlink:href="#path-1" fill="#DDECFE" id="蒙版"></use>
            <g mask="url(#mask-2)" id="编组-28备份">
                <g transform="translate(-47.000000, 12.449522)">
                    <path stroke-linejoin="round" fill-rule="evenodd" fill="#707AFB" stroke-width="1.536" stroke="#000000" id="路径-257" d="M70.0586451,160.780836 L202.311289,91.9180468 C203.878907,91.101802 205.744816,91.0955508 207.317867,91.9012737 L274.413593,126.267951 C276.919641,127.551558 278.037151,130.531476 276.993113,133.146414 L244.451247,214.651993 L244.451247,214.651993 L123.399741,228.65937 L68.5713421,169.322009 C66.5265862,167.109097 66.6629036,163.657575 68.8758155,161.612819 C69.2314255,161.284232 69.6291959,161.004446 70.0586451,160.780836 Z"></path>
                    <line stroke-linecap="round" fill="none" stroke-width="1.81849" stroke="#FCDCB3" id="路径-285" y2="205.793433" x2="111.998528" y1="145.664487" x1="97.601457"></line>
                    <g transform="translate(238.184679, 252.372228)" fill-rule="evenodd" fill="none" stroke-width="1" stroke="none" id="编组-27备份">
                        <path fill="#2B4C9F" stroke-width="1.536" stroke="#000000" id="形状结合" d="M17.3877476,1.5419458 C16.7381563,1.03238153 15.9331317,0.79065584 15.0400766,0.769523919 C14.0313726,0.745655457 12.9159688,0.999458076 11.762125,1.48436764 C9.38006808,2.48544081 6.85282897,4.46503379 4.73197592,7.16777892 C2.61170917,9.86985919 1.2940514,12.7894167 0.894845947,15.3322675 C0.701659363,16.5628236 0.72400376,17.7004666 0.990982977,18.6680662 C1.2260024,19.5198354 1.65254588,20.2348016 2.66605157,20.9861027 L8.26706486,25.0314268 L23.3381421,5.82505197 L17.3877476,1.5419458 Z"></path>
                        <ellipse ry="12.2080081" rx="6.46675317" cy="15.877757" cx="16.4260893" transform="translate(16.426089, 15.877757) rotate(38.000000) translate(-16.426089, -15.877757)" fill="#2B4C9F" stroke-width="1.536" stroke="#000000" id="椭圆形"></ellipse>
                    </g>
                    <line stroke-linecap="round" fill="none" stroke-width="1.536" stroke="#000000" id="路径-274" y2="225.271824" x2="185.677659" y1="259.147286" x1="241.572171"></line>
                    <line stroke-linecap="round" fill="none" stroke-width="1.536" stroke="#000000" id="路径-278" y2="248.056884" x2="222.262214" y1="297.624129" x1="148.41465"></line>
                    <line stroke-linecap="round" fill="none" stroke-width="1.536" stroke="#000000" id="路径-278备份" y2="253.993738" x2="231.577259" y1="301.134124" x1="156.908498"></line>
                    <line stroke-linecap="round" fill="none" stroke-width="1.536" stroke="#000000" id="路径-279" y2="239.538853" x2="207.908698" y1="286.87813" x1="132.323806"></line>
                    <line stroke-linecap="round" fill="none" stroke-width="1.536" stroke="#000000" id="路径-279备份-2" y2="232.763761" x2="199.439833" y1="280.103037" x1="123.85494"></line>
                    <line stroke-linecap="round" fill="none" stroke-width="1.536" stroke="#000000" id="路径-279备份" y2="243.773286" x2="215.530677" y1="292.175861" x1="139.098898"></line>
                    <line stroke-linecap="round" fill="none" stroke-width="1.536" stroke="#000000" id="路径-280" y2="234.587576" x2="183.983886" y1="273.544357" x1="117.079848"></line>
                    <line stroke-linecap="round" fill="none" stroke-width="1.536" stroke="#000000" id="路径-280备份" y2="226.965597" x2="178.902566" y1="266.769265" x1="111.151642"></line>
                    <path stroke-linecap="round" fill="none" stroke-width="1.536" stroke="#000000" id="路径-273" d="M290.691591,120.257891 C259.840673,188.391357 245.753075,223.458623 248.428797,225.459688 C252.442379,228.461286 262.747686,225.459688 262.747686,238.513848 C262.747686,251.568008 181.213765,301.491613 161.08992,301.491613 C140.966075,301.491613 102.830241,265.675968 109.351745,257.467179 C113.699415,251.994654 127.681193,243.711994 151.297081,232.619199"></path>
                    <path fill-rule="evenodd" fill="#F06172" stroke-width="0.606163332" stroke="#333333" id="路径-277" d="M225.629392,65.1665992 L297.466684,98.0972799 L297.466684,98.0972799 L291.320187,105.013933 L220.587931,71.3460735 C219.041148,70.6098201 218.384084,68.7590534 219.120338,67.2122705 C219.227933,66.9862256 219.362498,66.7740379 219.521097,66.5803383 C220.999053,64.7752811 223.508662,64.1944426 225.629392,65.1665992 Z"></path>
                    <g transform="translate(-0.000000, 0.000000)" fill-rule="evenodd" fill="none" stroke-width="1" stroke="none" id="零食备份">
                        <g transform="translate(109.042398, 157.327127) rotate(-55.000000) translate(-109.042398, -157.327127) translate(31.042398, 78.827127)" id="编组-4备份">
                            <path transform="translate(78.000701, 78.194900) rotate(55.000000) translate(-78.000701, -78.194900)" fill="#9FF1D3" stroke-width="1.536" stroke="#000000" id="路径-183" d="M39.3650903,89.0466402 C25.5686124,80.1570945 19.7763767,74.1327854 21.9883831,70.9737129 C25.3063927,66.2351042 36.2533017,65.1623546 38.4320189,65.4926549 C40.610736,65.8229552 69.1678726,46.4502037 71.5072804,40.2127535 C73.8466882,33.9753034 73.9887306,23.6999265 79.3187861,22.5722928 C84.6488416,21.4446591 83.4073347,37.2739849 87.4485279,40.1036589 C91.4897211,42.9333328 120.593711,74.5834423 124.22217,77.1241169 C127.85063,79.6647915 131.823573,74.5281193 133.34752,79.554477 C134.871467,84.5808346 135.712492,88.0376863 129.975992,93.9012777 C124.239492,99.7648692 79.5072552,133.788977 76.6427519,133.8749 C73.7782486,133.959248 69.7791368,127.111254 69.6078468,124.335286 C69.5200609,122.912606 62.5612348,118.993063 50.6932933,105.85463 C48.313252,103.2198 44.5371844,97.6171363 39.3650903,89.0466402 Z"></path>
                            <path transform="translate(75.237755, 78.087805) rotate(55.000000) translate(-75.237755, -78.087805)" fill="#FFD770" stroke-width="1.536" stroke="#000000" id="路径-184" d="M91.6235874,57.1974884 C91.4878178,56.9134396 91.2134824,56.6025925 90.8479388,56.2752079 C90.0308974,55.5434572 88.7730358,54.7779464 87.2753018,54.1780111 C85.0311172,53.2790761 82.2434777,52.7499646 79.553425,53.3096551 C75.4744579,54.1583222 73.9351778,57.3654196 72.6056484,59.9935817 C71.757025,61.6711075 70.9685621,63.1411458 69.8792446,63.9267243 C68.4689128,64.9438073 67.0164063,64.9365061 65.2404237,64.8623526 C63.3663829,64.7841049 61.0923741,64.6792976 58.0129818,66.345138 C56.2787117,67.2833158 55.2466637,68.7716733 54.9025573,70.7997522 C54.5318623,72.9845384 54.9309838,75.7544113 56.0540238,79.1102775 C56.1407332,79.3693821 56.2287861,79.6230997 56.3181999,79.8714177 C56.0684065,79.9227571 55.8239446,79.9911346 55.5852142,80.0768367 C53.1081034,80.9660981 51.3411322,83.6872105 50.1249245,88.0444245 C49.6842108,89.6233359 49.9181148,90.8360926 50.5426799,91.7998836 C51.5152171,93.300644 53.3243279,94.2220464 54.8468383,95.0315414 C55.8082792,95.5427245 56.6741537,96.0130607 57.248651,96.5072697 C57.861798,97.0347269 58.1704131,97.6048974 58.1794281,98.2147039 C58.1873176,98.7483728 58.5840835,99.2699413 59.1772922,99.7803531 C59.9283241,100.42656 61.0192555,101.030291 62.3753031,101.544603 C64.9024371,102.503078 68.3284716,103.135896 72.2598032,103.092852 C74.0772269,103.072953 75.2414949,102.825607 76.0024989,102.430435 C76.9563313,101.935131 77.1696261,101.19909 77.3771207,100.584384 C77.6440612,99.793568 77.9371406,99.1575018 78.6083443,98.7899306 C79.0896759,98.5263391 79.8037948,98.3822857 80.9815689,98.5563252 C83.5030893,98.9289299 84.0504013,98.1849522 85.7617092,96.2030401 C87.1940789,94.5441739 89.314353,92.0887837 93.449783,88.7092212 C95.5905824,86.9597139 96.5356835,85.7450101 96.6573372,84.8127677 C96.7055854,84.4430378 96.5709964,84.155837 96.3567646,83.9181056 C95.904944,83.4167238 95.1732885,83.0876343 94.5427542,82.7828714 C93.4019929,82.2314951 92.7182697,81.659872 92.6384185,81.0981822 C92.5899628,80.7573352 92.659413,80.355918 93.0866566,79.9063132 C93.3067295,79.674722 93.6525024,79.4093687 94.1657326,79.1144112 C96.5749086,77.7298384 98.5230709,74.8613675 99.621206,71.8745431 C100.710482,68.911816 101.006628,65.7785256 99.8788491,63.8771734 C98.6306691,61.7728335 96.0555,60.8613445 94.2302408,60.1721018 C93.2499061,59.8019142 92.4512049,59.4785158 92.0270681,59.1431855 C91.6983031,58.8832579 91.5302417,58.596758 91.4704654,58.3144373 C91.4327822,58.1364609 91.3965872,57.9495302 91.6235874,57.1974884 Z"></path>
                            <path transform="translate(74.638006, 79.705009) rotate(17.000000) translate(-74.638006, -79.705009)" fill-rule="nonzero" fill="#FFFFFF" stroke-width="0.606163332" stroke="#D18130" id="wow" d="M61.7359546,85.9446317 L64.8924726,84.8227079 L68.4457115,74.7771749 L65.513427,73.8278548 L63.8920461,78.505414 L63.0468583,74.0004584 L59.9248377,74.3456658 L57.9067361,80.0243262 L56.6993248,73.4653871 L54.0947662,74.5700505 L55.077944,84.9607909 L59.0451524,84.8572287 L60.7010307,80.6456994 L61.7359546,85.9446317 Z M73.7410722,85.720247 C75.2934581,85.720247 76.5641148,85.2196964 77.5530421,84.2185951 C78.6684601,83.1024248 79.2261691,81.525978 79.2261691,79.4892548 C79.2261691,77.8092459 78.7719525,76.4111562 77.8635192,75.2949859 C76.955086,74.1788155 75.7821722,73.6207304 74.3447779,73.6207304 C72.792392,73.6207304 71.5102362,74.2363501 70.4983106,75.4675895 C69.5208824,76.6528013 69.0321683,78.0969186 69.0321683,79.7999414 C69.0321683,81.5374849 69.4662614,82.9585884 70.3344476,84.0632518 C71.2026338,85.1679153 72.3381754,85.720247 73.7410722,85.720247 Z M74.1032956,80.4040542 C73.6433294,80.4040542 73.2494834,80.2343273 72.9217575,79.8948734 C72.5940316,79.5554196 72.4301686,79.1440475 72.4301686,78.6607573 C72.4301686,78.1889739 72.5940316,77.7833553 72.9217575,77.4439015 C73.2494834,77.1044476 73.6433294,76.9347207 74.1032956,76.9347207 C74.5632618,76.9347207 74.9599827,77.1044476 75.2934581,77.4439015 C75.6269336,77.7833553 75.7936714,78.1889739 75.7936714,78.6607573 C75.7936714,79.1440475 75.6298084,79.5554196 75.3020825,79.8948734 C74.9743566,80.2343273 74.574761,80.4040542 74.1032956,80.4040542 Z M88.4714896,85.9446317 L91.6280076,84.8227079 L95.1812464,74.7771749 L92.2489619,73.8278548 L90.6275811,78.505414 L89.7823932,74.0004584 L86.6603727,74.3456658 L84.642271,80.0243262 L83.4348598,73.4653871 L80.8303012,74.5700505 L81.8134789,84.9607909 L85.7806873,84.8572287 L87.4365656,80.6456994 L88.4714896,85.9446317 Z"></path>
                        </g>
                        <g transform="translate(108.179563, 0.000000)" id="编组-26">
                            <path fill="#FF8A7A" stroke-width="1.536" stroke="#000000" id="形状结合" d="M56.5995579,116.263187 C48.9232021,143.44857 46.2477761,159.989127 48.8360385,165.804391 C49.038528,166.259341 49.2432515,166.760946 49.4499769,167.309307 L25.3394248,175.866367 C24.9132004,173.713072 24.0037655,172.116187 22.5665689,171.109238 C21.2910821,170.215589 19.6182689,169.789711 17.5633918,169.789711 C13.8451557,169.789711 9.88789637,170.316403 6.8181456,172.246389 C4.48489986,173.713326 2.68627789,176.00572 1.91960362,179.493602 C0.820525139,184.493713 -0.187380864,193.14521 2.36210882,200.664176 C4.02815213,205.577678 7.23124627,210.003543 12.9804493,212.543728 C21.3079813,216.223104 35.8243647,213.630251 56.4804396,205.025756 C56.7830188,204.899714 57.0837544,204.773698 57.3826457,204.647709 C57.4340135,204.972354 57.4845403,205.295265 57.5345979,205.616432 C57.6207375,206.169099 57.7071257,206.727108 57.7937625,207.290459 L135.045368,182.801753 L141.341454,123.650815 L56.5995579,116.263187 Z"></path>
                            <path fill="#FF8A7A" stroke-width="2.304" stroke="#000000" id="路径" d="M133.533703,190.856635 C144.430552,178.793221 147.389124,156.889643 142.740581,125.304771 L61.9710845,201.723814 C63.1384005,195.599613 62.733429,190.606741 60.6430231,186.772958 C58.9561618,183.679272 56.1731602,181.365753 52.3292632,179.795254 C47.0020761,177.618727 42.7948525,177.89163 39.6501642,180.074923 C36.0209388,182.594621 33.8470693,187.50179 32.817333,193.559623 C31.6736179,200.287981 32.0920841,209.264729 36.3611288,216.496281 C39.5052019,221.822186 44.7594377,226.172082 53.0083092,227.954717 C62.4090011,229.986268 77.1291621,225.897365 91.7884265,219.17116 C108.266605,211.610371 124.687863,200.649468 133.533703,190.856635 Z"></path>
                            <path stroke-linejoin="round" fill="#FF8A7A" stroke-width="1.536" stroke="#000000" id="形状结合" d="M93.5318491,2.89385236 C97.3145866,5.45636511 100.237074,9.01116214 102.299313,13.5582435 C111.544621,13.809588 122.943094,15.9997573 133.738391,20.2476103 C142.595395,14.2689595 149.524948,12.2773286 154.527384,14.2714586 C162.36833,17.3971081 164.67267,22.5682659 164.67267,30.0916124 C164.67267,33.933268 163.944157,37.3936852 162.487132,40.4728641 C162.606468,40.6327434 162.725838,40.7941033 162.843997,40.9562101 C176.442016,59.6118879 188.102638,106.947686 152.433697,123.684304 C116.764756,140.420922 62.7743524,130.360214 47.8625877,109.351799 C41.5557139,100.466371 33.5057063,79.4357507 38.0034573,60.2873365 C40.3716284,50.2052488 47.748233,39.9148579 60.1332712,29.4161638 C61.2455362,28.5883343 62.3531864,27.7928714 63.4562219,27.0297749 C62.4611413,16.737911 64.416855,9.57509103 69.3232927,5.54049255 C76.9952682,-0.768227271 86.6855782,-1.74396778 93.5318491,2.89385236 Z"></path>
                            <ellipse ry="4.64200893" rx="4.63888012" cy="63.7899981" cx="86.0714365" fill="#1A0B06" id="椭圆形"></ellipse>
                            <path fill="#FFFFFF" stroke-width="1.536" stroke="#000000" id="椭圆形" d="M81.7360458,87.9319241 C80.5525171,93.0618076 81.0392332,98.0708543 82.8005501,102.020369 C84.5161659,105.867406 87.4468396,108.710738 91.2272339,109.584099 C95.0074845,110.457428 98.8870188,109.187524 102.114176,106.482516 C105.42737,103.705391 108.059097,99.4168551 109.242604,94.2870626 C110.426133,89.157179 109.939417,84.1481323 108.1781,80.1986172 C106.462484,76.3515806 103.53181,73.5082486 99.7514161,72.6348872 C95.9711656,71.7615589 92.0916313,73.0314629 88.8644744,75.7364709 C85.55128,78.5135957 82.9195535,82.8021316 81.7360458,87.9319241 Z"></path>
                            <ellipse ry="4.64200893" rx="4.63888012" cy="73.074016" cx="122.667237" fill="#1A0B06" id="椭圆形备份-66"></ellipse>
                            <path fill="#1A0B06" id="路径-254" d="M92.6391997,77.7171117 C92.6391997,77.7171117 102.619889,78.9868492 102.619889,80.24406 C102.619889,81.5012707 98.8452534,85.1777055 95.7422266,85.1777055 C92.6391997,85.1777055 92.6391997,77.7171117 92.6391997,77.7171117 Z"></path>
                            <line stroke-linecap="round" stroke-width="1.536" stroke="#1A0B06" id="路径-255" y2="94.0804898" x2="93.5058716" y1="85.1777055" x1="95.489325"></line>
                            <polyline points="87.5578804 95.5557385 93.5331566 94.0804898 98.5235014 99.7474484" stroke-linecap="round" stroke-width="1.536" stroke="#1A0B06" id="路径-256"></polyline>
                            <line stroke-linecap="round" stroke-width="1.59420956" stroke="#532F23" id="路径-259" y2="172.23047" x2="81.4325564" y1="180.496782" x1="56.0334797"></line>
                            <path fill="#FFFFFF" stroke-width="1.536" stroke="#000000" id="路径-264" d="M78.2435606,7.91434457 C74.793261,9.18413067 72.526431,10.9660526 71.5276492,13.3359348 C70.5936062,15.5522063 70.7820358,18.2425471 72.0018272,21.3998215 L91.4511539,13.8690754 C90.4244094,10.7629491 88.8971442,8.65706365 86.8001541,7.61985154 C84.5509859,6.50736914 81.6934553,6.64470749 78.2435606,7.91434457 Z"></path>
                            <path fill="#FFFFFF" stroke-width="1.536" stroke="#000000" id="路径-265" d="M156.231861,37.3283022 C157.569188,33.6624101 158.167319,30.5592051 158.000492,28.0159954 C157.823661,25.3202826 156.765425,23.2843908 154.783551,21.9341443 C153.631173,21.1490318 152.315562,20.642249 151.389757,21.0333876 C151.087255,21.1611899 150.853333,21.4081944 150.701703,21.7754633 C150.518074,22.2202396 150.449369,22.8118181 150.498832,23.5658686 C150.671412,26.1967753 152.258902,30.5508726 156.231861,37.3283022 Z"></path>
                        </g>
                        <g transform="translate(130.128476, 112.154940)" id="编组-4">
                            <path fill="#9FF1D3" stroke-width="1.536" stroke="#000000" id="路径-183" d="M15.0120084,30.2794775 C14.5482524,18.2345462 15.7325563,12.2120805 18.5649199,12.2120805 C22.8134654,12.2120805 28.0702894,18.3460009 28.7893717,19.7958899 C29.508454,21.245779 53.1932281,30.2653012 57.9312576,29.0451653 C62.6692871,27.8250294 68.9109413,23.5819286 71.8346557,26.313547 C74.7583702,29.0451653 64.7122235,34.9664418 64.7122235,38.589698 C64.7122235,42.2129541 57.9312576,73.0551153 57.9312576,76.3083222 C57.9312576,79.5615292 62.695178,79.7878605 60.3132178,82.8220686 C57.9312576,85.8562768 56.2058508,87.8184665 50.2616975,86.8373716 C44.3175442,85.8562768 5.00445373,73.277536 3.74654817,71.5900724 C2.4886426,69.9026088 4.92385007,64.6119313 6.52175651,63.3394899 C7.34068194,62.687365 6.76729485,56.8497053 9.67213824,44.1751438 C10.2546864,41.63334 12.0346431,37.0014512 15.0120084,30.2794775 Z"></path>
                            <path fill="#FFD770" stroke-width="1.536" stroke="#000000" id="路径-184" d="M35.5519117,33.2562881 C34.348762,32.6541052 33.113245,32.6623879 31.845737,33.2634392 C30.4346111,33.932594 29.0012945,35.287606 27.5187186,37.2913978 C27.3495942,37.5199797 27.1883558,37.7454795 27.0350677,37.9679195 C26.8586642,37.7780628 26.6665819,37.6091472 26.4580615,37.461767 C24.9583257,36.4017683 22.6922352,36.5151162 19.7287241,37.5589802 C18.6943544,37.9233255 18.1127389,38.5119771 17.8234829,39.2259165 C17.3552037,40.3817196 17.5634301,41.7841256 17.7097752,42.9758181 C17.8072388,43.7694679 17.8866543,44.488331 17.8313622,45.041932 C17.7661228,45.6951274 17.5209474,46.157523 17.1222351,46.4455806 C16.8515229,46.6411619 16.749688,47.0430181 16.7018608,47.5213791 C16.6331899,48.2082152 16.7270535,49.0717812 16.9753369,50.0508604 C17.4464688,51.9087189 18.4738976,54.1555115 20.0978189,56.4214984 C20.8285108,57.4410912 21.4251537,58.0075626 21.9504847,58.2817109 C22.5682516,58.6040977 23.0376283,58.4317034 23.4388196,58.314023 C24.0738997,58.1277367 24.6165892,58.0459382 25.1568403,58.3128716 C25.5375624,58.500983 25.954245,58.8813785 26.3683251,59.708485 C27.1440068,61.2578746 27.7855852,61.2508097 29.5449085,61.4298067 C31.1163016,61.5896833 33.4422679,61.8264347 37.1468103,62.8707747 C38.9625688,63.3826515 40.023245,63.4677338 40.8866697,62.7679944 C40.9895185,62.321668 40.8805084,61.7870808 40.8046397,61.3188415 C40.6348676,60.271058 40.7023971,59.5433272 42.1422395,59.0305927 C42.3835383,59.0668237 42.7016697,59.1649015 43.1112792,59.3568959 C44.8752854,60.1837301 47.3059641,60.140296 49.4609289,59.5703843 C51.5733337,59.0117281 53.4898933,57.9524955 54.1227739,56.5525072 C54.8248443,54.9994647 54.2984237,53.1667314 53.9632883,51.8531675 C53.7521692,51.0256855 53.5407543,50.3332945 54.6836155,48.8921814 C54.7695297,48.7166859 54.8214384,48.4721625 54.8560984,48.1835498 C54.9475161,47.4223176 54.8796136,46.3953148 54.6226933,45.2974164 C54.236604,43.6475399 53.4223489,41.8324458 52.0190803,40.5125321 C49.8992284,38.5186006 47.4443693,38.9458004 45.4141177,39.2371401 C44.0383455,39.4345624 42.816003,39.5695796 41.8796835,39.2434793 C40.6540442,38.816615 40.0271402,37.9355987 39.3102969,36.8150938 C38.6012906,35.7068389 37.7486299,34.3557571 35.5519117,33.2562881 Z"></path>
                            <path transform="translate(35.060501, 48.215174) rotate(12.000000) translate(-35.060501, -48.215174)" fill-rule="nonzero" fill="#FFFFFF" stroke-width="0.606163332" stroke="#D18130" id="wow" d="M25.8074819,52.6900711 L28.0712554,51.8854562 L30.6195469,44.6810583 L28.5165879,44.0002304 L27.3537753,47.3548555 L26.7476283,44.1240173 L24.5085955,44.3715911 L23.0612649,48.4441802 L22.1953406,43.7402779 L20.3274182,44.5325141 L21.032528,51.9844857 L23.8777078,51.9102136 L25.0652611,48.8898131 L25.8074819,52.6900711 Z M34.4172434,52.5291481 C35.5305747,52.5291481 36.4418569,52.1701661 37.1510901,51.452202 C37.9510392,50.6517134 38.3510138,49.5211263 38.3510138,48.0604408 C38.3510138,46.8555816 38.0252613,45.8529077 37.3737564,45.0524191 C36.7222514,44.2519304 35.8810678,43.8516861 34.8502056,43.8516861 C33.7368743,43.8516861 32.8173452,44.2931927 32.0916182,45.176206 C31.3906319,46.0262094 31.0401387,47.0618931 31.0401387,48.2832573 C31.0401387,49.5293788 31.3514591,50.5485576 31.9740999,51.3407938 C32.5967407,52.13303 33.4111219,52.5291481 34.4172434,52.5291481 Z M34.6770207,48.7165114 C34.3471448,48.7165114 34.0646885,48.5947876 33.8296519,48.3513401 C33.5946153,48.1078925 33.4770971,47.812867 33.4770971,47.4662637 C33.4770971,47.1279128 33.5946153,46.8370136 33.8296519,46.593566 C34.0646885,46.3501184 34.3471448,46.2283946 34.6770207,46.2283946 C35.0068966,46.2283946 35.2914146,46.3501184 35.5305747,46.593566 C35.7697347,46.8370136 35.8893147,47.1279128 35.8893147,47.4662637 C35.8893147,47.812867 35.7717964,48.1078925 35.5367598,48.3513401 C35.3017232,48.5947876 35.0151435,48.7165114 34.6770207,48.7165114 Z M44.9815198,52.6900711 L47.2452933,51.8854562 L49.7935847,44.6810583 L47.6906257,44.0002304 L46.5278131,47.3548555 L45.9216661,44.1240173 L43.6826333,44.3715911 L42.2353027,48.4441802 L41.3693784,43.7402779 L39.501456,44.5325141 L40.2065658,51.9844857 L43.0517456,51.9102136 L44.2392989,48.8898131 L44.9815198,52.6900711 Z"></path>
                            <ellipse ry="20.5074418" rx="16.6281543" cy="23.9730306" cx="20.8263093" transform="translate(20.826309, 23.973031) rotate(10.000000) translate(-20.826309, -23.973031)" fill="#FF8A7A" stroke-width="1.536" stroke="#000000" id="椭圆形"></ellipse>
                            <path fill="#FF8A7A" stroke-width="2.304" stroke="#000000" id="路径" d="M56.1448581,20.8997774 C53.3839387,22.698648 51.2782828,25.1945272 49.9875578,28.0361805 C48.6991146,30.8728102 48.223014,34.0539469 48.7189217,37.2268705 C49.5960605,42.8389918 53.5164104,48.3771851 61.1909935,52.0340075 C77.8869594,59.9893821 94.3597893,57.8928876 104.939572,55.1147327 L106.1461,21.3260399 C96.9070219,22.9517276 90.1065345,22.802138 85.7195089,21.0001844 C79.2574796,18.3459312 66.8161539,13.9469194 56.1448581,20.8997774 Z"></path>
                            <path fill="#000000" id="路径-100" d="M121.673833,15.2524349 C117.052017,16.9658076 112.520642,18.0153076 108.079708,18.4009349 C103.638775,18.7865623 96.7646309,19.2977752 87.4572755,19.9345735 C87.4572755,21.0663978 93.4239185,22.4125501 105.357204,23.9730306 C109.348942,24.4950183 115.119943,24.2676531 122.670208,23.2909349 L121.673833,15.2524349 Z"></path>
                            <path fill="#000000" id="路径-101" d="M61.1908333,53.0256275 C61.3604555,53.1708812 61.4871031,53.279279 61.5707759,53.3508208 C67.144668,58.1165987 70.4736271,60.7423281 71.5576533,61.2280091 C72.6660888,61.7246263 73.0530677,62.0213099 72.7185899,62.1180599 L79.9062942,58.2233099 C75.7164346,57.7800325 72.5971912,57.2624075 70.5485638,56.6704349 C68.4999363,56.0784624 65.7310679,54.8946552 62.2419583,53.1190134"></path>
                        </g>
                        <g transform="translate(124.011128, 177.479543)" id="矩形备份-58-+-矩形备份-59-蒙版">
                            <mask fill="white" id="mask-4">
                                <use xlink:href="#path-3"></use>
                            </mask>
                            <use xlink:href="#path-3" fill="#A95252" id="蒙版"></use>
                            <polygon points="11.1431576 1.12624555 14.8064849 1.12710366 14.809881 15.6323705 11.1465537 15.6315124" transform="translate(12.976519, 8.379308) rotate(22.000000) translate(-12.976519, -8.379308)" mask="url(#mask-4)" fill="#FFF6E5" id="矩形备份-58"></polygon>
                            <polygon points="4.83980407 -0.161998453 8.50313139 -0.161140346 8.50652749 14.3441265 4.84320017 14.3432684" transform="translate(6.673166, 7.091064) rotate(22.000000) translate(-6.673166, -7.091064)" mask="url(#mask-4)" fill="#FFF6E5" id="矩形备份-59"></polygon>
                        </g>
                        <path stroke-width="1.5339479" stroke="#000000" id="路径-191" d="M131.17488,180.492567 C130.546392,179.976044 129.768192,179.762076 129.017264,179.833767 C128.264205,179.905661 127.538572,180.264837 127.018861,180.894256 C126.454888,181.577278 126.193318,182.417847 126.227206,183.246331 C126.261095,184.074819 126.590446,184.891223 127.208318,185.525908 C131.143575,189.568163 133.46103,191.882554 134.164903,192.464117 C134.500413,192.741327 135.364875,192.445149 136.508241,192.079277 C137.892357,191.636366 139.718622,190.867226 141.988236,189.775025 L131.17488,180.492567 Z"></path>
                        <g transform="translate(134.675271, 171.917971)" id="矩形备份-60-+-矩形备份-61-蒙版">
                            <mask fill="white" id="mask-6">
                                <use xlink:href="#path-5"></use>
                            </mask>
                            <use xlink:href="#path-5" fill="#A95252" id="蒙版"></use>
                            <polygon points="4.65537867 0.250525724 8.31870598 0.25138383 8.32210209 14.7566506 4.65877477 14.7557925" transform="translate(6.488740, 7.503588) rotate(22.000000) translate(-6.488740, -7.503588)" mask="url(#mask-6)" fill="#FFF6E5" id="矩形备份-60"></polygon>
                            <polygon points="9.0688168 5.08571807 12.7321441 5.08657618 12.7355402 19.591843 9.0722129 19.5909849" transform="translate(10.902179, 12.338781) rotate(22.000000) translate(-10.902179, -12.338781)" mask="url(#mask-6)" fill="#FFF6E5" id="矩形备份-61"></polygon>
                        </g>
                        <path stroke-width="1.5339479" stroke="#000000" id="路径-192" d="M144.530878,176.452398 C144.026312,175.546849 143.204787,174.927454 142.281101,174.657084 C141.348552,174.384121 140.311871,174.466913 138.98037,175.233808 C138.193194,175.818034 137.717344,176.666017 137.584345,177.564737 C137.451345,178.463458 137.661196,179.412916 138.245422,180.200092 L144.482807,188.604243 L149.945071,188.604243 L144.530878,176.452398 Z"></path>
                        <g transform="translate(150.325045, 173.382949)" id="矩形备份-62-+-矩形备份-63-蒙版">
                            <mask fill="white" id="mask-8">
                                <use xlink:href="#path-7"></use>
                            </mask>
                            <use xlink:href="#path-7" fill="#A95252" id="蒙版"></use>
                            <polygon points="2.87798163 -1.31818232 6.54317096 -1.3174218 6.54618085 13.1804758 2.88099152 13.1797152" transform="translate(4.712081, 5.931147) rotate(71.000000) translate(-4.712081, -5.931147)" mask="url(#mask-8)" fill="#FFF6E5" id="矩形备份-62"></polygon>
                            <polygon points="3.01500878 5.22657271 6.68019811 5.22733323 6.68320801 19.7252308 3.01801867 19.7244703" transform="translate(4.849108, 12.475902) rotate(71.000000) translate(-4.849108, -12.475902)" mask="url(#mask-8)" fill="#FFF6E5" id="矩形备份-63"></polygon>
                        </g>
                        <path stroke-width="1.5339479" stroke="#000000" id="路径-193" d="M157.051927,176.27226 C157.015032,175.703876 156.754693,175.201855 156.361296,174.847591 C155.961722,174.487764 155.424879,174.280369 154.845476,174.310695 C154.146642,174.347272 153.513802,174.636799 153.038862,175.09132 C152.563922,175.545841 152.246883,176.165355 152.179651,176.861909 L151.148599,187.544096 L156.746533,189.264629 L157.051927,176.27226 Z"></path>
                        <g transform="translate(112.817726, 182.168047)" id="矩形-+-矩形备份-57-蒙版">
                            <mask fill="white" id="mask-10">
                                <use xlink:href="#path-9"></use>
                            </mask>
                            <use xlink:href="#path-9" fill="#A95252" id="蒙版"></use>
                            <polygon points="6.15263655 -0.409620901 9.81596387 -0.408762794 9.81935997 14.096504 6.15603266 14.0956459" transform="translate(7.985998, 6.843442) rotate(22.000000) translate(-7.985998, -6.843442)" mask="url(#mask-10)" fill="#FFF6E5" id="矩形"></polygon>
                            <polygon points="11.4730237 3.84945308 15.136351 3.85031118 15.1397471 18.355578 11.4764198 18.3547199" transform="translate(13.306385, 11.102516) rotate(22.000000) translate(-13.306385, -11.102516)" mask="url(#mask-10)" fill="#FFF6E5" id="矩形备份-57"></polygon>
                        </g>
                        <path stroke-width="1.5339479" stroke="#000000" id="路径-194" d="M121.035676,185.027834 C119.76224,183.788324 117.925451,183.320057 116.214016,183.798611 C116.025057,183.851448 115.849991,183.945099 115.701165,184.072958 C115.420225,184.314318 115.263712,184.646703 115.237774,184.988982 C115.211837,185.331261 115.316474,185.683435 115.557835,185.964376 L124.183045,196.003991 L129.333954,193.105036 L121.035676,185.027834 Z"></path>
                        <g transform="translate(110.304755, 190.609217)" id="矩形备份-64-+-矩形备份-65-蒙版">
                            <mask fill="white" id="mask-12">
                                <use xlink:href="#path-11"></use>
                            </mask>
                            <use xlink:href="#path-11" fill="#A95252" id="蒙版"></use>
                            <polygon points="3.89786223 -1.98858049 7.56118954 -1.98772238 7.56458565 12.5175444 3.90125833 12.5166863" transform="translate(5.731224, 5.264482) rotate(22.000000) translate(-5.731224, -5.264482)" mask="url(#mask-12)" fill="#FFF6E5" id="矩形备份-64"></polygon>
                            <polygon points="9.3851427 0.425306044 13.04847 0.42616415 13.0518661 14.931431 9.3885388 14.9305729" transform="translate(11.218504, 7.678369) rotate(22.000000) translate(-11.218504, -7.678369)" mask="url(#mask-12)" fill="#FFF6E5" id="矩形备份-65"></polygon>
                        </g>
                        <path stroke-width="1.5339479" stroke="#000000" id="路径-195" d="M112.482129,192.833393 C112.258978,193.066101 112.152318,193.368931 112.188166,193.685932 C112.226618,194.025959 112.417023,194.368244 112.741558,194.678761 L124.384915,202.326151 C125.807252,201.073712 126.707657,200.04642 127.036466,199.21546 C127.135982,198.963964 127.189063,198.73914 127.102504,198.549526 C127.008277,198.343115 126.781544,198.211199 126.491513,198.091517 C124.631907,197.324142 120.883649,195.427219 115.248427,192.396925 C114.790691,192.150787 114.278972,192.072343 113.79176,192.149215 C113.30455,192.226087 112.841845,192.458274 112.482129,192.833393 Z"></path>
                        <path fill="#FFD68B" stroke-width="1.536" stroke="#000000" id="路径-186" d="M121.049939,199.37968 L120.00259,205.821326 C136.985157,232.196702 147.080277,245.980119 150.425142,246.700207 C153.753248,247.416687 165.461011,243.374441 185.516466,234.812819 L186.233693,227.255596 L121.049939,199.37968 Z"></path>
                        <g transform="translate(120.620013, 185.347781)" id="路径-189">
                            <mask fill="white" id="mask-14">
                                <use xlink:href="#path-13"></use>
                            </mask>
                            <path d="M42.2348096,0.8522247 C33.7627107,2.38304116 26.5771991,3.63371357 20.6782805,4.60427501 C14.912528,5.55292635 8.3783096,8.55117733 1.06516753,13.5692963 C19.1726433,40.1769802 29.0549166,53.9324586 30.827854,54.4940615 C32.117231,54.9024898 39.5176912,53.744071 51.4275002,48.9119278 C54.3054488,47.7442634 59.013279,45.2950276 65.5531874,41.5690863 L42.2348096,0.8522247 Z" stroke-width="1.536" stroke="#000000"></path>
                            <path mask="url(#mask-14)" fill="#000000" id="路径-10" d="M11.9507257,28.5725464 C26.1341961,18.8849509 35.0441778,12.5946192 38.680671,9.70155117 C42.3171641,6.80848319 44.687854,6.21556007 45.7927405,7.92278184 L47.3917173,9.70155117 L11.9507257,30.7230805 L11.9507257,28.5725464 Z"></path>
                        </g>
                        <path stroke-width="0.943911134" stroke="#000000" id="路径-185" d="M162.837243,185.438909 C154.277513,186.986336 147.024976,188.249139 141.079635,189.227338 C135.21594,190.192104 128.559417,193.25866 121.103422,198.40812 C139.399704,225.295261 149.403251,239.126162 151.187873,239.691466 C152.488749,240.103536 159.953061,238.984434 171.988219,234.101433 C174.91084,232.915644 179.716601,230.412305 186.406906,226.594526 L162.837243,185.438909 Z"></path>
                        <path fill="#A95252" stroke-width="0.765947986" stroke="#651717" id="路径-187" d="M196.108275,181.447679 C195.919545,180.763915 195.466169,180.223776 194.845158,179.924464 C194.24,179.632792 193.481652,179.570348 192.657638,179.802765 C192.054553,180.070282 191.614098,180.554804 191.388391,181.12442 C191.160005,181.700799 191.151494,182.364304 191.416985,182.978321 L199.320184,201.254744 C199.463058,201.585146 199.699662,201.855963 200.023427,202.036201 C200.334927,202.20961 200.723085,202.29903 201.56122,201.973929 C201.649478,201.81838 201.678396,201.629161 201.627055,201.443142 L196.108275,181.447679 Z"></path>
                        <path fill="#A95252" stroke-width="0.765947986" stroke="#651717" id="路径-188" d="M200.416287,180.327741 C200.279862,180.396551 200.153746,180.483402 199.928368,180.682014 C199.413619,181.197943 199.120205,181.861142 199.059357,182.545033 C198.99823,183.23207 199.171815,183.93999 199.591521,184.540536 L209.570943,198.819678 C209.678839,198.974062 209.840727,199.069409 210.032829,199.076784 C210.238398,199.084676 210.466494,199.000608 210.70209,198.827859 C210.911294,198.559762 211.035904,198.244006 211.071787,197.91847 C211.109208,197.578989 211.050139,197.228873 210.889846,196.911069 L202.945909,181.161098 C202.711699,180.696786 202.311453,180.371344 201.853678,180.220534 C201.39591,180.069726 200.880614,180.093545 200.416287,180.327741 Z"></path>
                        <path fill="#A95252" stroke-width="0.765947986" stroke="#651717" id="路径-190" d="M206.417055,178.330959 C206.260815,178.476819 206.134042,178.651327 206.043622,178.845002 C205.703209,179.574157 205.633222,180.372387 205.804796,181.114791 C205.97637,181.857195 206.389505,182.543773 207.015335,183.049624 L219.745361,193.339139 C219.939114,193.495747 220.17869,193.558056 220.414379,193.522239 C220.652919,193.485988 220.883925,193.351127 221.06776,193.12636 C221.240798,192.861304 221.313176,192.554396 221.288948,192.255314 C221.264321,191.951296 221.139873,191.655363 220.91983,191.41966 L208.776388,178.412026 C208.461825,178.075077 208.040467,177.897529 207.613511,177.882859 C207.186556,177.868188 206.754004,178.016396 206.417055,178.330959 Z"></path>
                    </g>
                    <polygon points="68.8073142 167.683538 128.796725 217.792907 146.720877 267.616151 91.2888617 218.394271" stroke-linejoin="round" fill-rule="evenodd" fill="#97BFFF" stroke-width="1.536" stroke="#000000" id="路径-258"></polygon>
                    <g transform="translate(128.936260, 130.068849)" fill-rule="evenodd" fill="none" stroke-width="1" stroke="none" id="shopping">
                        <mask fill="white" id="mask-16">
                            <use xlink:href="#path-15"></use>
                        </mask>
                        <use xlink:href="#path-15" fill="#CDE7FF" id="蒙版"></use>
                        <path mask="url(#mask-16)" fill-rule="nonzero" fill="#6F7AFB" stroke-width="0.768" stroke="#000000" d="M26.8490362,108.515588 C27.2511656,108.25362 27.5606802,107.849309 27.7777054,107.30299 C27.9953727,106.757309 28.126228,106.16436 28.1699426,105.524194 C28.2138543,104.884733 28.1777629,104.242057 28.0612694,103.596069 C27.944445,102.95065 27.752578,102.395504 27.4854376,101.930329 L27.3928187,101.769345 C27.1557833,101.358033 26.8462999,100.943203 26.4640948,100.524783 C26.0810363,100.106402 25.6575597,99.7553256 25.1937182,99.4714504 C24.7290967,99.1874805 24.2350337,99.0188003 23.71186,98.9653898 C23.1883466,98.9118603 22.6759869,99.0407568 22.1755048,99.3523555 L17.8148852,102.095626 C17.8022129,102.103676 17.7199502,102.112368 17.5680911,102.121696 C17.4162241,102.131018 17.2869705,102.119722 17.1803174,102.087809 C17.1206491,102.075875 17.0433444,102.056444 16.9483933,102.029514 C16.853423,102.002579 16.8005015,101.980088 16.7896426,101.962045 L16.7081716,101.826731 C16.6103389,101.664377 16.5368486,101.411787 16.4877467,101.069083 C16.4386331,100.726568 16.5030862,100.499267 16.6811813,100.387058 L24.3154771,95.655343 C24.5271693,94.7029413 24.6813913,93.7876575 24.7777192,92.9092396 C24.8746638,92.032128 24.926309,91.1837276 24.9323742,90.3638641 L13.018465,97.6033148 C12.5838557,97.8738844 12.2562962,98.3091641 12.0361163,98.9095887 C11.8169227,99.5107759 11.6933592,100.165988 11.6651018,100.875354 C11.6374064,101.585665 11.6898936,102.283851 11.8220719,102.969779 C11.9541504,103.656479 12.1532463,104.218117 12.4190371,104.654263 C12.7063692,105.126981 13.0671168,105.564349 13.5010225,105.966212 C13.9339477,106.368101 14.4004068,106.690337 14.900537,106.932802 C15.3998691,107.175128 15.907999,107.309817 16.4253486,107.336878 C16.9424638,107.363812 17.4252075,107.230287 17.8742664,106.936575 L22.4006984,104.012267 C22.5273214,103.931366 22.6574484,103.9533 22.7909749,104.078055 C22.9244075,104.202809 23.0329795,104.33723 23.1167156,104.481333 L23.3048988,104.805627 C23.4093112,104.985829 23.4894653,105.169219 23.5453988,105.35581 C23.6012863,105.542447 23.5156779,105.708925 23.2887224,105.855257 L15.669659,110.866121 C15.6205266,110.899102 15.5796412,111.149988 15.5471758,111.6191 C15.5149505,112.088645 15.4914936,112.616922 15.4768388,113.204102 C15.4624684,113.791946 15.4608691,114.365448 15.4719555,114.924547 C15.483211,115.484233 15.5060352,115.881572 15.5402909,116.116189 L26.8490362,108.515588 Z M34.4060912,103.672202 L33.1618989,97.611342 L38.2269216,94.5338069 L39.410243,100.547667 L43.8546998,97.8194166 L40.5900399,81.244015 L36.021293,83.8696839 L37.3619726,90.2855619 L33.7497694,92.4355445 L32.9598491,96.659713 L30.8542929,86.8717613 L26.2743625,89.5671476 L30.0094885,106.470081 L34.4060912,103.672202 Z M56.0128211,90.5369202 C56.9640233,89.9763216 57.7677268,89.2311773 58.4239753,88.3020986 C59.0806892,87.3746521 59.5760283,86.3678332 59.9093784,85.2816943 C60.2422624,84.1972207 60.4029591,83.0725018 60.3906414,81.9073445 C60.376709,80.7435714 60.1758076,79.6420748 59.7873833,78.6023048 C59.6873896,78.2988459 59.5768293,78.0238858 59.4557267,77.7774003 C59.334472,77.5309441 59.2064029,77.2883031 59.0715162,77.0494724 C58.5981939,76.2137517 58.0517812,75.5707552 57.4327408,75.1201704 C56.8124396,74.6694732 56.1400798,74.3996702 55.4160113,74.3107414 C54.6911504,74.2216805 53.9117985,74.2927941 53.0781714,74.5242726 C52.2440509,74.7558729 51.3711001,75.1283551 50.459552,75.6420645 L46.8595751,77.6761905 C46.014965,78.1548094 45.2968621,78.8430083 44.705649,79.7414627 C44.1151199,80.6413468 43.6791459,81.6388567 43.3973749,82.7342599 C43.1159158,83.8314841 42.9995096,84.9623527 43.0473032,86.1267565 C43.0943012,87.2928627 43.3249964,88.3813964 43.7384064,89.3916838 C43.8496449,89.6511436 43.9624335,89.8980429 44.076781,90.1323708 C44.1909923,90.3667349 44.3067743,90.5885142 44.424136,90.7976994 C44.9701695,91.7742022 45.5728594,92.4952099 46.2330113,92.9601746 C46.8914905,93.4248926 47.5924851,93.6834298 48.3367486,93.7358713 C49.0803773,93.7879955 49.8660722,93.6702649 50.6944648,93.3829558 C51.5230162,93.0958743 52.3719792,92.6937041 53.2417232,92.1768143 L56.0128211,90.5369202 Z M51.8596585,88.3549589 C51.5815999,88.5179629 51.2656942,88.5886665 50.9117849,88.5670249 C50.5577383,88.5452688 50.2111159,88.4501924 49.8717953,88.2817406 C49.53215,88.1132247 49.2117068,87.8929953 48.9104006,87.6210773 C48.6086832,87.34913 48.3702244,87.0572385 48.1951274,86.7454602 L48.1074767,86.5895894 C48.0490053,86.4856824 48.0215212,86.4212062 48.025047,86.3961575 C47.9602908,86.2499025 47.9065245,86.0684988 47.8637379,85.8519704 C47.8208897,85.6354888 47.7872563,85.3964317 47.7628354,85.1348215 C47.7425405,84.7559916 47.7695861,84.3441387 47.8440354,83.8993449 C47.9184511,83.4548265 48.0300464,83.0292791 48.178882,82.6226914 C48.3277611,82.216362 48.5104511,81.853869 48.7269788,81.535157 C48.9435797,81.2166274 49.1787581,80.9848275 49.4324723,80.8396582 L51.7764998,79.501076 C52.1772408,79.2726758 52.5412194,79.1505707 52.8683492,79.134659 C53.1953678,79.1187329 53.4899182,79.1779874 53.7519462,79.3124122 C54.0137909,79.4468086 54.2457589,79.637826 54.4478162,79.8854926 C54.6496441,80.1331676 54.8279115,80.3941941 54.9826364,80.6685915 C55.0695783,80.8229547 55.1507112,80.9749485 55.2260417,81.1245736 C55.3013153,81.2742102 55.370795,81.421479 55.4344868,81.5663806 C55.4248634,81.5492225 55.4481884,81.6379002 55.504411,81.8324354 L55.5686504,82.1357695 C55.5804326,82.219733 55.592748,82.320405 55.6055906,82.4377908 C55.6184156,82.5551901 55.6184544,82.6969712 55.6057042,82.8631488 C55.6221463,83.2394703 55.5677048,83.6624524 55.4424451,84.1322152 C55.317122,84.6022892 55.1617841,85.0502601 54.9764918,85.4761106 C54.791223,85.9022519 54.5897742,86.2755045 54.3721734,86.5957916 C54.1546397,86.9162696 53.9796146,87.1152577 53.8470512,87.1926238 L51.8596585,88.3549589 Z M67.2657371,83.9671901 L66.2618156,78.1070257 L72.9503791,74.2972722 C73.4911207,73.9897653 73.9891488,73.5513323 74.4443228,72.9822029 C74.8989714,72.4135959 75.2497821,71.7767088 75.4965647,71.0715915 C75.7425294,70.3670549 75.8574376,69.6315837 75.8410731,68.865094 C75.8235823,68.0990677 75.6142509,67.3636197 75.2128821,66.65849 C75.0212682,66.3227569 74.7603128,65.9649175 74.4298636,65.5849447 C74.098902,65.2049669 73.7327293,64.8778353 73.3313951,64.6035148 C72.929618,64.3291461 72.4990106,64.1485024 72.0396411,64.0615823 C71.5799201,63.974614 71.1328728,64.0527859 70.6985243,64.2962241 L59.7339895,70.4335408 L62.6987159,86.6185348 L67.2657371,83.9671901 Z M65.9926258,76.5836181 L65.1314943,71.973029 L70.0198819,69.2190201 C70.0463019,69.2041383 70.1597272,69.2348646 70.3600968,69.3111879 C70.5603839,69.3874966 70.7108346,69.4529001 70.8114918,69.5074064 C70.8114918,69.5074064 70.8243601,69.5224011 70.8500942,69.5523904 C70.8758251,69.5823796 70.9000709,69.6020799 70.9228334,69.6114911 L70.9549329,69.7602479 C70.9704003,69.8182654 70.9747006,69.9103911 70.9678196,70.0366346 C70.9609128,70.1628929 70.9530645,70.2952449 70.9442708,70.4336929 C70.9354465,70.572159 70.9260496,70.6942639 70.9160898,70.8000023 C70.9061126,70.9057515 70.8945145,70.9623612 70.8813083,70.9698234 L67.0699348,73.1241282 L65.9926258,76.5836181 Z M83.2670453,74.7695253 L82.2546783,69.006357 L88.7948625,65.2746708 C89.3212996,64.9733277 89.8036974,64.5428796 90.241706,63.9835046 C90.6785691,63.424558 91.0120366,62.7979495 91.2419188,62.1037004 C91.4703609,61.4099008 91.5694881,60.6851251 91.5392198,59.929287 C91.5073795,59.1737798 91.288455,58.4478153 90.8825507,57.7511756 C90.6887606,57.419459 90.426875,57.0657414 90.0967748,56.6899976 C89.7661961,56.3142341 89.4024329,55.9905246 89.0055547,55.718846 C88.6082949,55.4471203 88.1849493,55.2678327 87.7355502,55.1809896 C87.2858132,55.0941094 86.8517376,55.1702519 86.4331702,55.409524 L75.7904829,61.4378321 L78.746585,77.3598787 L83.2670453,74.7695253 Z M81.980677,67.5069142 L81.0985105,62.9657537 L85.8544723,60.2634395 C85.8800984,60.2488327 85.991514,60.2793965 86.1886655,60.355121 C86.3857437,60.430833 86.5339104,60.4956745 86.6332042,60.5496525 C86.6332042,60.5496525 86.6460192,60.5644654 86.6716469,60.5940911 C86.6972716,60.6237166 86.7212889,60.643196 86.7437005,60.6525293 L86.7773367,60.7992433 C86.7933368,60.8564701 86.7989142,60.9472887 86.7940456,61.0717064 C86.7891378,61.1961351 86.7833826,61.3265638 86.776774,61.4629944 C86.7701184,61.5994384 86.7626534,61.7197527 86.7543937,61.8239331 C86.7461065,61.9281216 86.7355384,61.983879 86.7227098,61.9911993 L83.0115709,64.1040389 L81.980677,67.5069142 Z M98.9524433,65.7494762 L95.6541363,50.0830908 L91.381305,52.5667833 L94.5628874,68.2854643 L98.9524433,65.7494762 Z M104.59831,62.4628035 L102.729283,53.6857465 L108.250196,60.3170078 L113.535751,57.1752924 L109.676033,41.6615523 L105.71859,44.0897482 L107.876371,52.8343527 L102.191747,46.2166146 L96.921954,49.3400667 L100.27832,64.9804835 L104.59831,62.4628035 Z M126.820138,49.0088627 L124.140169,39.3583075 L119.430393,42.4052828 C119.356489,42.7050506 119.309195,43.0965654 119.28801,43.5798578 C119.265596,44.0632388 119.253184,44.5396245 119.250862,45.0090051 C119.247438,45.4784608 119.250711,45.8975956 119.261012,46.2663847 C119.27066,46.6352152 119.284826,46.8476938 119.303989,46.9037893 L119.319243,46.9282869 L121.618463,45.4815169 L122.142852,47.3697617 L120.954748,48.1152457 C120.704697,48.2715595 120.390913,48.3317453 120.01348,48.2957601 C119.635779,48.2597588 119.25324,48.1587452 118.86588,47.9926916 C118.478274,47.8265857 118.109879,47.6087272 117.760653,47.3391096 C117.411128,47.0694329 117.139717,46.7792769 116.946393,46.4686724 C116.79353,46.2234468 116.635566,45.8563396 116.471965,45.3673745 C116.37717,45.0397659 116.307744,44.690354 116.263549,44.3191564 C116.218744,43.947998 116.208379,43.5948593 116.232479,43.2597474 C116.255998,42.9246843 116.324415,42.6239994 116.437794,42.357693 C116.550674,42.0914352 116.718689,41.8875989 116.941957,41.7461698 L122.06566,38.4449579 C122.192354,37.6604612 122.258813,36.8723169 122.265309,36.0804851 C122.268064,35.2888771 122.242276,34.4608374 122.187533,33.5963815 L114.205254,38.8184912 C113.504604,39.2632801 112.973927,39.9038403 112.612117,40.7403337 C112.245426,41.577329 112.034196,42.4920834 111.978452,43.4845634 C111.917968,44.4775085 111.999828,45.4824223 112.224556,46.4991485 C112.445296,47.5161227 112.79573,48.4178581 113.277267,49.2041131 C113.995603,50.3833105 114.78798,51.234309 115.656847,51.757032 C116.524165,52.2793802 117.420104,52.5650671 118.344618,52.6143192 C119.267516,52.6634855 120.197776,52.5225396 121.134257,52.1917756 C122.067576,51.8613167 122.95758,51.4325965 123.803528,50.905756 L126.820138,49.0088627 Z"></path>
                    </g>
                    <path stroke-linejoin="round" fill="none" stroke-width="1.536" stroke="#000000" id="路径-266" d="M128.93626,218.016552 L275.837363,131.205796 C276.202523,130.990006 276.673476,131.111094 276.889267,131.476254 C277.009704,131.680059 277.029422,131.928018 276.942707,132.148296 L244.598296,214.311311 L244.598296,214.311311 L146.92216,267.616156 L128.93626,218.016552 Z"></path>
                    <polygon points="295.007981 123.645437 280.528953 116.906381 299.552787 94.8512941 308.476209 98.7569932" fill-rule="evenodd" fill="#F06172" stroke-width="0.606163332" stroke="#333333" id="路径-276"></polygon>
                    <path fill-rule="evenodd" fill="#D33F51" stroke-width="0.606163332" stroke="#333333" id="路径-275" d="M295.064509,123.645437 L287.304045,119.083673 L303.290179,99.3682268 C304.607816,97.743206 306.912865,97.3203147 308.721537,98.3717732 C310.299259,99.2889702 310.834719,101.311501 309.917522,102.889223 C309.864861,102.979809 309.80792,103.067839 309.746893,103.153015 L295.064509,123.645437 L295.064509,123.645437 Z"></path>
                </g>
            </g>
        </g>
    </g>
</svg>